<svg width="23" height="43" viewBox="0 0 23 43" fill="none" xmlns="http://www.w3.org/2000/svg">
<path d="M0.636266 12.8138C0.636266 12.8138 2.86256 28.3201 0.636266 30.5041C-1.59003 32.6881 24.2349 32.9065 21.786 30.5041C19.3371 28.1017 21.786 12.8138 21.786 12.8138C21.786 12.8138 21.786 5.82498 11.2111 5.82498C0.636266 5.82498 0.636266 12.8138 0.636266 12.8138Z" fill="black"/>
<path d="M9.29999 36.075V42.1673C9.29999 42.1673 9.29999 42.675 11.225 42.675C13.15 42.675 13.15 42.1673 13.15 42.1673V36.075H9.29999Z" fill="black"/>
<path d="M6.54999 24.9911V35.6555C6.54999 35.6555 6.54999 36.625 11.5 36.625C16.45 36.625 16.45 35.6555 16.45 35.6555V24.9911C16.45 24.9911 16.45 22.325 11.5 22.325C6.54999 22.325 6.54999 24.9911 6.54999 24.9911Z" fill="black" stroke="#DCBF85"/>
<path d="M11.5 6.09998C8.47501 6.09998 8.20001 4.72498 8.20001 4.72498H14.8C14.8 4.72498 14.525 6.09998 11.5 6.09998Z" fill="black"/>
<path d="M1.43822 3.43088C0.564694 4.30441 1.43822 4.88676 1.43822 4.88676H21.7882C21.7882 4.88676 22.6617 4.30441 21.7882 3.43088C20.9147 2.55735 17.9382 3.79485 16.7007 2.55735C15.4632 1.31985 12.325 0.0499878 11.5 0.0499878C10.675 0.0499878 7.76322 1.31985 6.52572 2.55735C5.28822 3.79485 2.31175 2.55735 1.43822 3.43088Z" fill="black"/>
<circle cx="11.5" cy="3.07499" r="1.65" fill="#DCBF85"/>
</svg>
